<svg width="117" height="240" viewBox="0 0 117 240" fill="none" xmlns="http://www.w3.org/2000/svg">
<path fill-rule="evenodd" clip-rule="evenodd" d="M96.9061 161.533C95.2056 169.353 91.4897 176.494 85.2241 180.906C75.8768 187.489 56.8844 190.697 20.226 173.848C21.9246 166.032 25.6402 158.894 31.9081 154.484C41.257 147.906 60.2512 144.702 96.9061 161.533ZM97.8182 141.886C62.6317 127.121 37.7756 127.909 21.3443 139.469C3.40743 152.089 -0.205543 174.618 0.958875 190.061V335.218H19.3173V193.499C54.5031 208.276 79.3614 207.489 95.7944 195.916C113.729 183.286 117.341 160.741 116.177 145.288V0H97.8182V141.886Z" fill="url(#paint0_linear_6197_6749)"/>
<defs>
<linearGradient id="paint0_linear_6197_6749" x1="65.6036" y1="0" x2="65.6036" y2="335.218" gradientUnits="userSpaceOnUse">
<stop stop-color="#1AAE70"/>
<stop offset="1" stop-color="#B8FC82"/>
</linearGradient>
</defs>
</svg>
