<svg width="40" height="40" viewBox="0 0 40 40" fill="none" xmlns="http://www.w3.org/2000/svg">
<rect x="1" y="1" width="38" height="38" rx="19" fill="#6780E3"/>
<rect x="1" y="1" width="38" height="38" rx="19" stroke="white" stroke-width="2"/>
<path d="M20.3717 8.03579V8.04771C20.3836 8.10736 20.3836 8.17893 20.3836 8.2505V16.8511C20.3717 16.8988 20.3359 16.9107 20.3001 16.9346C20.0496 17.0538 19.811 17.1612 19.5605 17.2685C19.2146 17.4236 18.8568 17.5906 18.5108 17.7457L17.2583 18.3183C16.9124 18.4733 16.5665 18.6284 16.2324 18.7835C15.8269 18.9743 15.4094 19.1533 15.0038 19.3441C14.6579 19.4992 14.3119 19.6662 13.9541 19.8213C13.6678 19.9525 13.3815 20.0718 13.1071 20.203C13.0833 20.2149 13.0594 20.2268 13.0356 20.2268C13.0236 20.2268 13.0236 20.2268 13.0117 20.2149L13.3338 19.6781C13.9541 18.6523 14.5624 17.6383 15.1827 16.6125C15.8388 15.515 16.5068 14.4176 17.1629 13.3201C17.7712 12.3062 18.3915 11.2923 18.9999 10.2784C19.4412 9.53879 19.8945 8.79922 20.3359 8.05964C20.3478 8.03579 20.3598 8.02386 20.3598 8H20.3717C20.3598 8.01193 20.3717 8.02386 20.3717 8.03579Z" fill="white"/>
<path d="M27.6957 20.2147L27.7076 20.2267L25.9541 21.2645L20.4431 24.521C20.4192 24.5329 20.3954 24.5448 20.3834 24.5568C20.3477 24.5568 20.3477 24.521 20.3477 24.509V24.4017V17.0298C20.3477 16.994 20.3477 16.9463 20.3596 16.9105C20.3715 16.8628 20.4073 16.8747 20.4431 16.8866C20.5982 16.9582 20.7652 17.0298 20.9203 17.1014C21.3855 17.3161 21.8507 17.5308 22.3159 17.7336C22.7215 17.9125 23.1151 18.1034 23.5207 18.2823C23.9263 18.4612 24.3318 18.6521 24.7374 18.831C25.0833 18.9861 25.4412 19.1531 25.7871 19.3081C26.1331 19.4632 26.4909 19.6302 26.8368 19.7853C27.1112 19.9046 27.3855 20.0358 27.6599 20.1551C27.6599 20.1909 27.6719 20.2028 27.6957 20.2147Z" fill="#8499E8"/>
<path d="M20.3717 31.9642C20.3717 31.9762 20.3598 31.9881 20.3598 32H20.3478C20.3478 31.9762 20.324 31.9642 20.312 31.9404C19.5725 30.9026 18.8329 29.8529 18.0933 28.8151C17.3418 27.7534 16.5784 26.6799 15.8269 25.6182C15.0992 24.5924 14.3597 23.5546 13.632 22.5287C13.4412 22.2543 13.2503 21.9919 13.0594 21.7175C13.0475 21.6937 13.0356 21.6818 13.0117 21.646C13.0475 21.646 13.0713 21.6698 13.0833 21.6818C14.1211 22.2901 15.147 22.8985 16.1847 23.5069C17.3776 24.2106 18.5585 24.9144 19.7514 25.6182L20.3598 25.9761C20.3836 25.9999 20.3836 26.0238 20.3836 26.0477V31.7972C20.3836 31.8569 20.3836 31.9165 20.3717 31.9642Z" fill="white"/>
<path d="M13 20.2389V20.2269C13.3817 20.0599 13.7515 19.881 14.1332 19.714C14.6223 19.4874 15.1113 19.2726 15.6004 19.046C15.9702 18.879 16.3519 18.7001 16.7217 18.5331C17.2704 18.2826 17.8072 18.044 18.3559 17.7935C18.7257 17.6265 19.0955 17.4595 19.4772 17.2806C19.7397 17.1613 20.014 17.042 20.2764 16.9227C20.3003 16.9108 20.3361 16.8988 20.348 16.875C20.36 16.875 20.36 16.8869 20.348 16.8988V24.4735C20.348 24.5093 20.3361 24.5451 20.36 24.569C20.3361 24.6047 20.3122 24.569 20.3003 24.557C20.1929 24.4974 20.0856 24.4378 19.9782 24.3662C17.676 23.0063 15.3618 21.6345 13.0596 20.2746C13.0477 20.2627 13.0238 20.2508 13 20.2389Z" fill="#C1CBF3"/>
<path d="M27.6716 21.646H27.6835C27.6835 21.6698 27.6597 21.6937 27.6478 21.7175C25.4529 24.8071 23.258 27.9085 21.0632 30.998C20.8365 31.3201 20.5979 31.6422 20.3713 31.9642C20.3594 31.9523 20.3594 31.9404 20.3594 31.9284V31.8569V26.0715V25.9642C20.8604 25.6659 21.3495 25.3796 21.8505 25.0814C23.7829 23.9363 25.7153 22.8031 27.6358 21.6579C27.6478 21.6698 27.6597 21.6579 27.6716 21.646Z" fill="#C2CCF3"/>
<path d="M20.3598 16.8989V16.875V16.8035V8.14328C20.3598 8.10749 20.3479 8.08364 20.3717 8.04785C22.7932 12.0678 25.2148 16.0758 27.6243 20.0958C27.6482 20.1316 27.684 20.1793 27.6959 20.227C27.5289 20.1673 27.3738 20.0838 27.2187 20.0123C27.0279 19.9288 26.8251 19.8333 26.6342 19.7498C26.515 19.6902 26.3837 19.6425 26.2645 19.5828C26.0617 19.4874 25.8589 19.4039 25.6561 19.3085C25.5368 19.2608 25.4175 19.2011 25.2983 19.1415L24.511 18.7836C24.3797 18.724 24.2485 18.6643 24.1054 18.6047L23.5328 18.3542C23.4135 18.3065 23.2942 18.2468 23.175 18.1872L22.3877 17.8293C22.2565 17.7697 22.1252 17.7101 21.9821 17.6504L21.4095 17.3999C21.2783 17.3402 21.159 17.2806 21.0278 17.2209C20.8012 17.1136 20.5745 17.0063 20.3359 16.9108C20.3717 16.8989 20.3598 16.8989 20.3598 16.8989Z" fill="#C2CCF3"/>
</svg>
