<svg width="40" height="40" viewBox="0 0 40 40" fill="none" xmlns="http://www.w3.org/2000/svg">
<rect x="1" y="1" width="38" height="38" rx="19" fill="#1AAE70"/>
<rect x="1" y="1" width="38" height="38" rx="19" stroke="white" stroke-width="2"/>
<path d="M28.1245 12.362V16.9501C28.1245 21.4242 24.4837 25.0632 20.0114 25.0632C19.2166 25.0632 18.4346 24.946 17.6855 24.7189V22.8161C17.6855 21.547 18.7185 20.514 19.9876 20.514H20.0114C20.4986 20.514 20.9619 20.417 21.385 20.2375C21.6102 20.1441 21.8227 20.0287 22.0205 19.8914C22.9581 19.2485 23.5753 18.1699 23.5753 16.9501V12.362C23.5753 11.1093 24.5954 10.0874 25.8499 10.0874C27.1044 10.0874 28.1245 11.1093 28.1245 12.362Z" fill="white"/>
<path d="M22.3121 15.0474V16.9503C22.3121 18.2194 21.2811 19.2523 20.0119 19.2523H19.9881C19.5943 19.2523 19.2171 19.3164 18.8636 19.4355C18.6292 19.5124 18.4039 19.6149 18.1952 19.7376C17.1366 20.3567 16.4242 21.5049 16.4242 22.8162V27.6351C16.4242 28.8878 15.4041 29.9097 14.1496 29.9097C12.8951 29.9097 11.875 28.8878 11.875 27.6351V22.8162C11.875 20.7412 12.657 18.8494 13.9408 17.4136C14.4261 16.8697 14.9847 16.3917 15.6001 15.9961C16.8656 15.1775 18.3728 14.7031 19.9881 14.7031C20.7829 14.7031 21.5649 14.8222 22.3121 15.0474Z" fill="white"/>
</svg>
