<svg width="41" height="24" viewBox="0 0 41 24" fill="none" xmlns="http://www.w3.org/2000/svg">
<rect x="0.5" y="0.5" width="23" height="23" rx="11.5" fill="#1AAE70"/>
<rect x="0.5" y="0.5" width="23" height="23" rx="11.5" stroke="white"/>
<path d="M17.0002 7.29965V10.1231C17.0002 12.8764 14.7596 15.1158 12.0075 15.1158C11.5184 15.1158 11.0371 15.0437 10.5762 14.9039V13.733C10.5762 12.9519 11.2118 12.3163 11.9928 12.3163H12.0075C12.3073 12.3163 12.5924 12.2566 12.8527 12.1461C12.9914 12.0886 13.1221 12.0176 13.2438 11.9331C13.8208 11.5375 14.2006 10.8737 14.2006 10.1231V7.29965C14.2006 6.52878 14.8284 5.8999 15.6004 5.8999C16.3724 5.8999 17.0002 6.52878 17.0002 7.29965Z" fill="white"/>
<path d="M13.4229 8.95211V10.1231C13.4229 10.9041 12.7883 11.5397 12.0073 11.5397H11.9927C11.7504 11.5397 11.5182 11.5792 11.3007 11.6524C11.1564 11.6998 11.0178 11.7629 10.8893 11.8384C10.2379 12.2193 9.7995 12.926 9.7995 13.7329V16.6984C9.7995 17.4693 9.17176 18.0981 8.39975 18.0981C7.62775 18.0981 7 17.4693 7 16.6984V13.7329C7 12.456 7.48124 11.2918 8.27127 10.4082C8.56993 10.0735 8.91367 9.77934 9.29235 9.53591C10.0711 9.03213 10.9986 8.74023 11.9927 8.74023C12.4818 8.74023 12.963 8.81349 13.4229 8.95211Z" fill="white"/>
<path d="M30 23C36.0751 23 41 18.0751 41 12C41 5.92487 36.0751 1 30 1C23.9249 1 19 5.92487 19 12C19 18.0751 23.9249 23 30 23Z" fill="#627EEA"/>
<path d="M30.3418 3.75V9.84812L35.496 12.1512L30.3418 3.75Z" fill="white" fill-opacity="0.602"/>
<path d="M30.3424 3.75L25.1875 12.1512L30.3424 9.84812V3.75Z" fill="white"/>
<path d="M30.3418 16.1028V20.2464L35.4994 13.1108L30.3418 16.1028Z" fill="white" fill-opacity="0.602"/>
<path d="M30.3424 20.2464V16.1022L25.1875 13.1108L30.3424 20.2464Z" fill="white"/>
<path d="M30.3418 15.144L35.496 12.1514L30.3418 9.84961V15.144Z" fill="white" fill-opacity="0.2"/>
<path d="M25.1875 12.1514L30.3424 15.144V9.84961L25.1875 12.1514Z" fill="white" fill-opacity="0.602"/>
</svg>
