<svg width="35" height="35" viewBox="0 0 36 35" fill="none" xmlns="http://www.w3.org/2000/svg">
<path d="M24.5928 13.4425V20.3864C24.5928 27.1577 19.0826 32.6651 12.314 32.6651C11.1111 32.6651 9.92758 32.4878 8.79395 32.1441V29.2642C8.79395 27.3434 10.3572 25.7802 12.278 25.7802H12.314C13.0513 25.7802 13.7526 25.6333 14.3928 25.3616C14.7338 25.2203 15.0553 25.0457 15.3546 24.8378C16.7737 23.8649 17.7078 22.2324 17.7078 20.3864V13.4425C17.7078 11.5466 19.2517 10 21.1503 10C23.0489 10 24.5928 11.5466 24.5928 13.4425Z" fill="#1AAE70"/>
<path d="M15.7961 17.5064V20.3863C15.7961 22.3071 14.2356 23.8703 12.3148 23.8703H12.2787C11.6828 23.8703 11.1118 23.9673 10.5769 24.1475C10.2221 24.2639 9.8812 24.4191 9.56522 24.6048C7.96317 25.5417 6.88497 27.2795 6.88497 29.2641V36.5573C6.88497 38.4531 5.34112 39.9997 3.44248 39.9997C1.54385 39.9997 0 38.4531 0 36.5573V29.2641C0 26.1237 1.18353 23.2605 3.12651 21.0875C3.86101 20.2643 4.70639 19.5409 5.63769 18.9422C7.55295 17.7032 9.83408 16.9854 12.2787 16.9854C13.4817 16.9854 14.6652 17.1655 15.7961 17.5064Z" fill="#1AAE70"/>
<path d="M35.999 33.5V16.5898H39.5381V23.457H47.1553V16.5898H50.6943V33.5H47.1553V26.375H39.5381V33.5H35.999ZM52.4287 33.5L58.335 16.5898H62.4951L68.3896 33.5H64.6748L63.3975 29.3984H57.4209L56.1436 33.5H52.4287ZM60.374 19.8711L58.2412 26.75H62.5771L60.4443 19.8711H60.374ZM72.585 33.5V27.1836L66.7021 16.5898H70.5225L74.3193 23.8086H74.4014L78.1865 16.5898H82.0186L76.124 27.1836V33.5H72.585ZM80.3193 33.5L86.2256 16.5898H90.3857L96.2803 33.5H92.5654L91.2881 29.3984H85.3115L84.0342 33.5H80.3193ZM88.2646 19.8711L86.1318 26.75H90.4678L88.335 19.8711H88.2646Z" fill="white"/>
</svg>