<svg width="35" height="35" viewBox="0 0 35 25" fill="none" xmlns="http://www.w3.org/2000/svg">
<g clip-path="url(#clip0_4643_4229)">
<path d="M27.4992 3.48947V10.4831C27.4992 17.3444 21.899 22.9241 15.0171 22.9241C13.7942 22.9241 12.5918 22.7447 11.4395 22.3949V19.4757C11.4395 17.5296 13.0299 15.9451 14.9818 15.9451H15.0171C15.7667 15.9451 16.4782 15.7952 17.1308 15.5218C17.4777 15.3778 17.804 15.2014 18.1097 14.9897C19.5531 14.0049 20.5027 12.3498 20.5027 10.4802V3.48947C20.5027 1.56982 22.0725 0 24.0009 0C25.9294 0 27.4992 1.56688 27.4992 3.48947Z" fill="#00BD75"/>
<path d="M18.5558 7.5638V10.483C18.5558 12.4291 16.9684 14.0136 15.0164 14.0136H14.9811C14.3755 14.0136 13.7964 14.1106 13.2526 14.2958C12.891 14.4134 12.5441 14.5721 12.2237 14.7603C10.595 15.7098 9.49852 17.4707 9.49852 19.4815V26.5163C9.49852 28.4359 7.92871 30.0057 6.00024 30.0057C4.07177 30.0057 2.50195 28.4389 2.50195 26.5163V19.4815C2.50195 16.3007 3.7043 13.3992 5.67981 11.1973C6.4265 10.3624 7.2849 9.63043 8.2315 9.02485C10.1776 7.76958 12.4971 7.04053 14.9811 7.04053C16.2041 7.04053 17.4064 7.22279 18.5558 7.56968V7.5638Z" fill="#00BD75"/>
</g>
<defs>
<clipPath id="clip0_4643_4229">
<rect width="30" height="30" fill="white"/>
</clipPath>
</defs>
</svg>