<svg width="32" height="33" viewBox="0 0 32 33" fill="none" xmlns="http://www.w3.org/2000/svg">
<rect y="0.474609" width="32" height="32" rx="10" fill="#464646"/>
<path fill-rule="evenodd" clip-rule="evenodd" d="M15.9992 7C11.0303 7 7 11.1312 7 16.2281C7 20.3042 9.5785 23.7627 13.1549 24.9833C13.6049 25.0678 13.7694 24.7826 13.7694 24.5387C13.7694 24.3195 13.761 23.7394 13.7565 22.9689C11.2533 23.5269 10.7246 21.7324 10.7246 21.7324C10.3159 20.6664 9.72588 20.3824 9.72588 20.3824C8.90856 19.8097 9.78775 19.8218 9.78775 19.8218C10.6911 19.887 11.1659 20.7722 11.1659 20.7722C11.9691 22.1828 13.273 21.7757 13.7857 21.5392C13.8673 20.9424 14.0999 20.5358 14.3567 20.3051C12.3584 20.0727 10.2574 19.2809 10.2574 15.7448C10.2574 14.7379 10.6082 13.9138 11.1839 13.269C11.0911 13.0355 10.7822 12.0983 11.2722 10.8279C11.2722 10.8279 12.0279 10.5799 13.7472 11.7737C14.4649 11.5689 15.235 11.4668 16 11.4634C16.765 11.4668 17.5348 11.5692 18.2534 11.7739C19.9718 10.5802 20.7256 10.8282 20.7256 10.8282C21.2172 12.0983 20.9084 13.0363 20.8156 13.2699C21.3927 13.9152 21.7409 14.7391 21.7409 15.746C21.7409 19.2907 19.6363 20.0713 17.6318 20.299C17.9547 20.5845 18.2421 21.1468 18.2421 22.0081C18.2421 23.2417 18.2314 24.2371 18.2314 24.5398C18.2314 24.7858 18.3937 25.0733 18.8502 24.983C22.4237 23.7596 25 20.3028 25 16.2278C25 11.1315 20.9703 7 15.9992 7Z" fill="white"/>
</svg>
